<svg width="20" height="20" viewBox="0 0 20 20" fill="none" xmlns="http://www.w3.org/2000/svg">
<path d="M1.71007 18.2908H2.82881L14.8264 6.24073L13.7077 5.11831L1.71007 17.1684V18.2908ZM18.3849 5.0738L14.8773 1.55465L15.8831 0.538988C16.2391 0.181859 16.673 0.00220297 17.1849 1.98076e-05C17.6967 -0.00214516 18.1307 0.173163 18.4866 0.525944L19.5143 1.557C19.8486 1.88804 20.0103 2.28968 19.9995 2.76191C19.9886 3.23413 19.8226 3.63141 19.5013 3.95375L18.3849 5.0738ZM17.249 6.21344L3.50765 20H0V16.4808L13.7349 2.70081L17.249 6.21344ZM14.2736 5.67952L13.7077 5.11831L14.8264 6.24073L14.2736 5.67952Z" fill="#38A0FF"/>
</svg>
