<svg width="111" height="110" viewBox="0 0 111 110" fill="none" xmlns="http://www.w3.org/2000/svg">
<path d="M55.5 110C24.8973 110 0 85.327 0 55C0 24.673 24.8973 0 55.5 0C86.1027 0 111 24.673 111 55C111 85.327 86.1027 110 55.5 110ZM55.5 4.88889C27.618 4.88889 4.93333 27.3692 4.93333 55C4.93333 82.6308 27.618 105.111 55.5 105.111C83.382 105.111 106.067 82.6308 106.067 55C106.067 27.3692 83.382 4.88889 55.5 4.88889Z" fill="#FF2E2E"/>
<path d="M37.4243 47.8353C41.4185 47.8353 44.6565 44.6265 44.6565 40.6682C44.6565 36.7099 41.4185 33.5011 37.4243 33.5011C33.43 33.5011 30.192 36.7099 30.192 40.6682C30.192 44.6265 33.43 47.8353 37.4243 47.8353Z" fill="#FF2E2E"/>
<path d="M73.5856 47.8353C77.5799 47.8353 80.8179 44.6265 80.8179 40.6682C80.8179 36.7099 77.5799 33.5011 73.5856 33.5011C69.5913 33.5011 66.3533 36.7099 66.3533 40.6682C66.3533 44.6265 69.5913 47.8353 73.5856 47.8353Z" fill="#FF2E2E"/>
<path d="M89.0232 80.0433C88.4744 80.0433 87.9219 79.8637 87.4631 79.4921C78.4647 72.2064 67.1131 68.1939 55.5 68.1939C43.8857 68.1939 32.5353 72.2064 23.5369 79.4921C22.4837 80.3477 20.9284 80.1912 20.0663 79.1462C19.2042 78.1012 19.3609 76.5612 20.4154 75.7069C30.2919 67.7087 42.7523 63.305 55.5 63.305C68.2477 63.305 80.7069 67.7099 90.5846 75.7057C91.6391 76.56 91.7958 78.1 90.9337 79.145C90.4465 79.7366 89.7373 80.0433 89.0232 80.0433Z" fill="#FF2E2E"/>
</svg>
