<svg width="19" height="20" viewBox="0 0 19 20" fill="none" xmlns="http://www.w3.org/2000/svg">
<path d="M3.4887 20C2.9162 20 2.41973 19.7936 1.99929 19.3808C1.57886 18.9679 1.36864 18.4805 1.36864 17.9183V3.16206H1.07345C0.769303 3.16206 0.51436 3.06105 0.308616 2.85903C0.102872 2.657 0 2.40668 0 2.10804C0 1.8094 0.102872 1.55907 0.308616 1.35705C0.51436 1.15503 0.769303 1.05402 1.07345 1.05402H5.7161C5.7161 0.75538 5.81897 0.50505 6.02472 0.30303C6.23046 0.10101 6.4854 0 6.78955 0H12.2105C12.5146 0 12.774 0.105402 12.9887 0.316205C13.2034 0.527009 13.3107 0.772947 13.3107 1.05402H17.9266C18.2307 1.05402 18.4856 1.15503 18.6914 1.35705C18.8971 1.55907 19 1.8094 19 2.10804C19 2.40668 18.8971 2.657 18.6914 2.85903C18.4856 3.06105 18.2307 3.16206 17.9266 3.16206H17.6314V17.9183C17.6314 18.4805 17.4211 18.9679 17.0007 19.3808C16.5803 19.7936 16.0838 20 15.5113 20H3.4887ZM3.4887 3.16206V17.9183H15.5113V3.16206H3.4887ZM6.27966 14.8617C6.27966 15.1076 6.36911 15.3184 6.54802 15.4941C6.72693 15.6697 6.94162 15.7576 7.19209 15.7576C7.46045 15.7576 7.68409 15.6697 7.86299 15.4941C8.0419 15.3184 8.13136 15.1076 8.13136 14.8617V6.19236C8.13136 5.92885 8.03743 5.70487 7.84958 5.52042C7.66172 5.33597 7.44256 5.24374 7.19209 5.24374C6.92373 5.24374 6.70457 5.33597 6.5346 5.52042C6.36464 5.70487 6.27966 5.92885 6.27966 6.19236V14.8617ZM10.8686 14.8617C10.8686 15.1076 10.9626 15.3184 11.1504 15.4941C11.3383 15.6697 11.5574 15.7576 11.8079 15.7576C12.0763 15.7576 12.2999 15.6697 12.4788 15.4941C12.6577 15.3184 12.7472 15.1076 12.7472 14.8617V6.19236C12.7472 5.92885 12.6532 5.70487 12.4654 5.52042C12.2775 5.33597 12.0584 5.24374 11.8079 5.24374C11.5395 5.24374 11.3159 5.33597 11.137 5.52042C10.9581 5.70487 10.8686 5.92885 10.8686 6.19236V14.8617ZM3.4887 3.16206V17.9183V3.16206Z" fill="#FF2828"/>
</svg>
