<svg width="16" height="16" viewBox="0 0 16 16" fill="none" xmlns="http://www.w3.org/2000/svg">
<path d="M8 9.65314L2.00738 15.6458C1.77122 15.8819 1.4957 16 1.18081 16C0.865929 16 0.590406 15.8819 0.354244 15.6458C0.118081 15.4096 0 15.1341 0 14.8192C0 14.5043 0.118081 14.2288 0.354244 13.9926L6.34686 8L0.354244 2.00738C0.118081 1.77122 0 1.4957 0 1.18081C0 0.865929 0.118081 0.590406 0.354244 0.354244C0.590406 0.118081 0.865929 0 1.18081 0C1.4957 0 1.77122 0.118081 2.00738 0.354244L8 6.34686L13.9926 0.354244C14.2288 0.118081 14.5043 0 14.8192 0C15.1341 0 15.4096 0.118081 15.6458 0.354244C15.8819 0.590406 16 0.865929 16 1.18081C16 1.4957 15.8819 1.77122 15.6458 2.00738L9.65314 8L15.6458 13.9926C15.8819 14.2288 16 14.5043 16 14.8192C16 15.1341 15.8819 15.4096 15.6458 15.6458C15.4096 15.8819 15.1341 16 14.8192 16C14.5043 16 14.2288 15.8819 13.9926 15.6458L8 9.65314Z" fill="white" fill-opacity="0.5"/>
</svg>
