<svg width="208" height="35" viewBox="0 0 208 35" fill="none" xmlns="http://www.w3.org/2000/svg">
<path d="M12.6793 35C10.4375 35 8.35182 34.4148 6.42236 33.2444C4.51127 32.0555 2.95851 30.3928 1.76408 28.2564C0.588027 26.1014 0 23.5748 0 20.6768C0 17.6115 0.588027 15.0199 1.76408 12.9021C2.95851 10.7657 4.51127 9.14942 6.42236 8.05334C8.35182 6.95727 10.4375 6.40924 12.6793 6.40924C14.425 6.40924 15.9594 6.69719 17.2825 7.27309C18.6239 7.83041 19.7632 8.59209 20.7004 9.55812C21.6375 10.5056 22.3726 11.5645 22.9055 12.7349C23.4384 13.9053 23.7783 15.0849 23.9253 16.2739L17.3652 16.4411C17.0712 15.2521 16.5199 14.2675 15.7113 13.4873C14.9212 12.707 13.8921 12.3169 12.6242 12.3169C11.5768 12.3169 10.5937 12.6141 9.67488 13.2086C8.75609 13.7845 8.00268 14.6855 7.41465 15.9116C6.845 17.1377 6.56017 18.7261 6.56017 20.6768C6.56017 22.5345 6.82662 24.0857 7.35952 25.3304C7.9108 26.5565 8.64583 27.4854 9.56462 28.117C10.4834 28.7301 11.5033 29.0366 12.6242 29.0366C14.278 29.0366 15.4816 28.6372 16.2351 27.8384C16.9885 27.021 17.3652 25.9342 17.3652 24.578H23.9253C23.9253 26.4915 23.4935 28.2378 22.6298 29.8169C21.7662 31.396 20.4982 32.6592 18.826 33.6067C17.1538 34.5356 15.1049 35 12.6793 35Z" fill="url(#paint0_linear_11_78)"/>
<path d="M40.0389 35C37.595 35 35.3807 34.4705 33.3961 33.4116C31.4299 32.3527 29.8679 30.7736 28.7102 28.6744C27.5526 26.5565 26.9737 23.9092 26.9737 20.7325C26.9737 17.5 27.5526 14.8248 28.7102 12.707C29.8679 10.5892 31.4299 9.01008 33.3961 7.96974C35.3807 6.9294 37.595 6.40924 40.0389 6.40924C42.4462 6.40924 44.6237 6.9294 46.5716 7.96974C48.5378 9.01008 50.0997 10.5892 51.2574 12.707C52.4151 14.8248 52.9939 17.5 52.9939 20.7325C52.9939 23.9092 52.4151 26.5565 51.2574 28.6744C50.0997 30.7736 48.5378 32.3527 46.5716 33.4116C44.6237 34.4705 42.4462 35 40.0389 35ZM39.8184 29.2596C41.1047 29.2596 42.244 28.9437 43.2363 28.3121C44.247 27.6619 45.0372 26.7051 45.6068 25.4419C46.1948 24.1786 46.4889 22.6088 46.4889 20.7325C46.4889 17.8715 45.9284 15.7166 44.8075 14.2675C43.7049 12.8185 42.1889 12.0939 40.2594 12.0939C38.9548 12.0939 37.7971 12.4191 36.7864 13.0693C35.7757 13.7009 34.9764 14.6576 34.3884 15.9395C33.8187 17.2213 33.5339 18.819 33.5339 20.7325C33.5339 23.5563 34.0944 25.6834 35.2153 27.1138C36.3546 28.5443 37.889 29.2596 39.8184 29.2596Z" fill="url(#paint1_linear_11_78)"/>
<path d="M76.8865 34.2197V18.3917C76.8865 16.3853 76.4087 14.8713 75.4532 13.8495C74.4977 12.8278 73.2481 12.3169 71.7045 12.3169C70.3998 12.3169 69.2422 12.6791 68.2315 13.4037C67.2392 14.1282 66.4582 15.2243 65.8886 16.6919C65.3189 18.1409 65.0341 19.9522 65.0341 22.1258H62.8841C62.8841 18.6146 63.316 15.698 64.1796 13.3758C65.0433 11.035 66.2653 9.28875 67.8456 8.13694C69.4259 6.98514 71.2819 6.40924 73.4135 6.40924C75.6186 6.40924 77.4562 6.91083 78.9262 7.91401C80.4147 8.89862 81.5264 10.2919 82.2615 12.0939C83.0149 13.896 83.3916 15.9952 83.3916 18.3917V34.2197H76.8865ZM58.5291 34.2197V7.18949H64.2072L65.0341 12.5398V34.2197H58.5291Z" fill="url(#paint2_linear_11_78)"/>
<path d="M99.7119 35C98.1316 35 96.6799 34.7028 95.3568 34.1083C94.0521 33.5138 93.0047 32.6035 92.2145 31.3774C91.4428 30.1513 91.0569 28.5908 91.0569 26.6959V0H97.5619V26.4729C97.5619 28.7022 98.6093 29.8169 100.704 29.8169C101.347 29.8169 101.99 29.7426 102.634 29.5939C103.277 29.4453 104.012 29.2224 104.839 28.9252L105.776 33.5509C104.747 33.9597 103.745 34.3033 102.771 34.582C101.798 34.8607 100.778 35 99.7119 35ZM87.3082 11.5366V7.18949H104.839V11.5366H87.3082Z" fill="url(#paint3_linear_11_78)"/>
<path d="M127.25 34.2197L126.423 27.6433V16.7755C126.423 14.8806 126.037 13.478 125.265 12.5677C124.512 11.6574 123.225 11.2022 121.406 11.2022C120.359 11.2022 119.449 11.3601 118.677 11.676C117.906 11.9918 117.308 12.4469 116.886 13.0414C116.482 13.6173 116.279 14.3232 116.279 15.1592H109.168C109.168 13.1157 109.655 11.453 110.629 10.1712C111.603 8.87075 112.999 7.9233 114.819 7.32882C116.656 6.71576 118.852 6.40924 121.406 6.40924C123.722 6.40924 125.743 6.79007 127.47 7.55175C129.198 8.29485 130.539 9.44665 131.495 11.0072C132.45 12.5677 132.928 14.5648 132.928 16.9984V34.2197H127.25ZM118.485 35C116.188 35 114.267 34.6006 112.724 33.8017C111.199 32.9843 110.05 31.9161 109.278 30.5971C108.506 29.2781 108.121 27.8477 108.121 26.3057C108.121 24.5966 108.562 23.1661 109.444 22.0143C110.344 20.8439 111.612 19.9708 113.247 19.3949C114.883 18.8004 116.812 18.5032 119.036 18.5032C120.487 18.5032 121.856 18.6146 123.143 18.8376C124.447 19.0605 125.743 19.3577 127.029 19.7293V23.5748C126.019 23.2404 124.916 22.9804 123.722 22.7946C122.527 22.6088 121.406 22.5159 120.359 22.5159C118.815 22.5159 117.547 22.8039 116.555 23.3798C115.563 23.9557 115.067 24.931 115.067 26.3057C115.067 27.3089 115.471 28.1728 116.279 28.8973C117.088 29.6218 118.374 29.9841 120.138 29.9841C121.48 29.9841 122.619 29.6868 123.556 29.0924C124.493 28.4979 125.201 27.7548 125.679 26.8631C126.175 25.9713 126.423 25.0796 126.423 24.1879H127.966C127.966 26.1385 127.608 27.9405 126.891 29.5939C126.175 31.2288 125.109 32.5385 123.694 33.5231C122.298 34.5077 120.561 35 118.485 35Z" fill="url(#paint4_linear_11_78)"/>
<path d="M150.401 35C148.159 35 146.074 34.4148 144.144 33.2444C142.233 32.0555 140.68 30.3928 139.486 28.2564C138.31 26.1014 137.722 23.5748 137.722 20.6768C137.722 17.6115 138.31 15.0199 139.486 12.9021C140.68 10.7657 142.233 9.14942 144.144 8.05334C146.074 6.95727 148.159 6.40924 150.401 6.40924C152.147 6.40924 153.681 6.69719 155.004 7.27309C156.346 7.83041 157.485 8.59209 158.422 9.55812C159.359 10.5056 160.094 11.5645 160.627 12.7349C161.16 13.9053 161.5 15.0849 161.647 16.2739L155.087 16.4411C154.793 15.2521 154.242 14.2675 153.433 13.4873C152.643 12.707 151.614 12.3169 150.346 12.3169C149.299 12.3169 148.316 12.6141 147.397 13.2086C146.478 13.7845 145.725 14.6855 145.137 15.9116C144.567 17.1377 144.282 18.7261 144.282 20.6768C144.282 22.5345 144.548 24.0857 145.081 25.3304C145.633 26.5565 146.368 27.4854 147.286 28.117C148.205 28.7301 149.225 29.0366 150.346 29.0366C152 29.0366 153.204 28.6372 153.957 27.8384C154.71 27.021 155.087 25.9342 155.087 24.578H161.647C161.647 26.4915 161.215 28.2378 160.352 29.8169C159.488 31.396 158.22 32.6592 156.548 33.6067C154.876 34.5356 152.827 35 150.401 35Z" fill="url(#paint5_linear_11_78)"/>
<path d="M176.272 35C174.692 35 173.24 34.7028 171.917 34.1083C170.613 33.5138 169.565 32.6035 168.775 31.3774C168.003 30.1513 167.617 28.5908 167.617 26.6959V0H174.122V26.4729C174.122 28.7022 175.17 29.8169 177.265 29.8169C177.908 29.8169 178.551 29.7426 179.194 29.5939C179.837 29.4453 180.572 29.2224 181.399 28.9252L182.336 33.5509C181.307 33.9597 180.306 34.3033 179.332 34.582C178.358 34.8607 177.338 35 176.272 35ZM163.869 11.5366V7.18949H181.399V11.5366H163.869Z" fill="url(#paint6_linear_11_78)"/>
<path d="M196.754 35C194.181 35 191.967 34.647 190.111 33.9411C188.274 33.2166 186.859 32.1855 185.866 30.8479C184.874 29.4918 184.369 27.8662 184.35 25.9713H190.359C190.414 27.3089 190.938 28.2842 191.93 28.8973C192.923 29.5103 194.273 29.8169 195.982 29.8169C196.919 29.8169 197.746 29.6775 198.463 29.3989C199.198 29.1202 199.768 28.7394 200.172 28.2564C200.576 27.7734 200.778 27.2346 200.778 26.6401C200.778 25.8784 200.503 25.284 199.951 24.8567C199.418 24.4108 198.555 24.0021 197.36 23.6306L191.517 21.5127C189.422 20.7511 187.814 19.7479 186.693 18.5032C185.572 17.2585 185.012 15.7723 185.012 14.0446C185.012 11.7596 186.032 9.92038 188.071 8.52707C190.129 7.11518 192.877 6.40924 196.313 6.40924C199.731 6.40924 202.368 7.17091 204.224 8.69427C206.098 10.199 207.063 12.1125 207.118 14.4347H200.999C200.907 13.543 200.484 12.837 199.731 12.3169C198.977 11.7967 197.838 11.5366 196.313 11.5366C194.935 11.5366 193.851 11.8246 193.06 12.4005C192.289 12.9578 191.903 13.6173 191.903 14.379C191.903 15.6608 192.987 16.6269 195.155 17.2771L201.495 19.6736C203.553 20.3795 205.152 21.2898 206.291 22.4045C207.43 23.5191 208 24.931 208 26.6401C208 28.0706 207.522 29.4268 206.567 30.7086C205.63 31.9719 204.316 33.0029 202.625 33.8017C200.934 34.6006 198.977 35 196.754 35Z" fill="url(#paint7_linear_11_78)"/>
<defs>
<linearGradient id="paint0_linear_11_78" x1="104.065" y1="-17.3844" x2="120.484" y2="48.3634" gradientUnits="userSpaceOnUse">
<stop offset="0.271334" stop-color="#FF8A00"/>
<stop offset="1" stop-color="#FF005C"/>
</linearGradient>
<linearGradient id="paint1_linear_11_78" x1="104.065" y1="-17.3844" x2="120.484" y2="48.3634" gradientUnits="userSpaceOnUse">
<stop offset="0.271334" stop-color="#FF8A00"/>
<stop offset="1" stop-color="#FF005C"/>
</linearGradient>
<linearGradient id="paint2_linear_11_78" x1="104.065" y1="-17.3844" x2="120.484" y2="48.3634" gradientUnits="userSpaceOnUse">
<stop offset="0.271334" stop-color="#FF8A00"/>
<stop offset="1" stop-color="#FF005C"/>
</linearGradient>
<linearGradient id="paint3_linear_11_78" x1="104.065" y1="-17.3844" x2="120.484" y2="48.3634" gradientUnits="userSpaceOnUse">
<stop offset="0.271334" stop-color="#FF8A00"/>
<stop offset="1" stop-color="#FF005C"/>
</linearGradient>
<linearGradient id="paint4_linear_11_78" x1="104.065" y1="-17.3844" x2="120.484" y2="48.3634" gradientUnits="userSpaceOnUse">
<stop offset="0.271334" stop-color="#FF8A00"/>
<stop offset="1" stop-color="#FF005C"/>
</linearGradient>
<linearGradient id="paint5_linear_11_78" x1="104.065" y1="-17.3844" x2="120.484" y2="48.3634" gradientUnits="userSpaceOnUse">
<stop offset="0.271334" stop-color="#FF8A00"/>
<stop offset="1" stop-color="#FF005C"/>
</linearGradient>
<linearGradient id="paint6_linear_11_78" x1="104.065" y1="-17.3844" x2="120.484" y2="48.3634" gradientUnits="userSpaceOnUse">
<stop offset="0.271334" stop-color="#FF8A00"/>
<stop offset="1" stop-color="#FF005C"/>
</linearGradient>
<linearGradient id="paint7_linear_11_78" x1="104.065" y1="-17.3844" x2="120.484" y2="48.3634" gradientUnits="userSpaceOnUse">
<stop offset="0.271334" stop-color="#FF8A00"/>
<stop offset="1" stop-color="#FF005C"/>
</linearGradient>
</defs>
</svg>
