<svg width="17" height="17" viewBox="0 0 17 17" fill="none" xmlns="http://www.w3.org/2000/svg">
<path d="M15.4909 17L9.52089 11.0444C9.09182 11.3852 8.58507 11.6519 8.00065 11.8444C7.41623 12.037 6.78372 12.1333 6.10313 12.1333C4.40165 12.1333 2.9591 11.5407 1.77546 10.3556C0.591819 9.17037 0 7.74074 0 6.06667C0 4.39259 0.591819 2.96296 1.77546 1.77778C2.9591 0.592593 4.39426 0 6.08094 0C7.75283 0 9.17689 0.592593 10.3531 1.77778C11.5294 2.96296 12.1175 4.39259 12.1175 6.06667C12.1175 6.73333 12.025 7.35185 11.8401 7.92222C11.6551 8.49259 11.3777 9.02963 11.0078 9.53333L17 15.4889L15.4909 17ZM6.08094 10.0444C7.1906 10.0444 8.12641 9.65556 8.88838 8.87778C9.65035 8.1 10.0313 7.16296 10.0313 6.06667C10.0313 4.95556 9.65035 4.01481 8.88838 3.24444C8.12641 2.47407 7.1906 2.08889 6.08094 2.08889C4.97128 2.08889 4.02807 2.47407 3.25131 3.24444C2.47454 4.01481 2.08616 4.95556 2.08616 6.06667C2.08616 7.16296 2.47454 8.1 3.25131 8.87778C4.02807 9.65556 4.97128 10.0444 6.08094 10.0444Z" fill="white"/>
</svg>
